<?xml version="1.0" standalone="no"?>
<!DOCTYPE svg PUBLIC "-//W3C//DTD SVG 20010904//EN"
 "http://www.w3.org/TR/2001/REC-SVG-20010904/DTD/svg10.dtd">
<svg version="1.0" xmlns="http://www.w3.org/2000/svg"
 width="720.000000pt" height="873.000000pt" viewBox="0 0 720.000000 873.000000"
 preserveAspectRatio="xMidYMid meet">
<metadata>
Created by potrace 1.16, written by Peter Selinger 2001-2019
</metadata>
<g transform="translate(0.000000,873.000000) scale(0.100000,-0.100000)"
fill="#000000" stroke="none">
<path d="M2 5389 l-2 -3346 42 7 c24 5 94 11 157 15 63 3 124 11 135 17 11 6
56 12 99 13 43 1 82 7 85 12 4 6 16 12 26 14 11 2 21 9 23 14 6 22 -17 37 -63
41 -27 2 -68 6 -92 10 -30 4 -58 0 -95 -14 -105 -39 -144 -44 -190 -24 -30 13
-50 16 -72 11 -35 -10 -48 0 -43 32 2 18 13 26 50 37 50 14 60 25 31 37 -14 5
-9 10 22 21 53 18 62 18 120 -11 28 -14 58 -25 68 -25 9 0 17 -5 17 -11 0 -5
4 -8 9 -5 4 3 37 -6 72 -19 35 -14 83 -25 110 -25 30 0 55 -6 70 -19 33 -25
119 -50 153 -44 19 4 34 -1 49 -15 12 -12 47 -26 77 -33 66 -13 81 -24 46 -33
-14 -3 -26 -13 -26 -21 0 -8 -4 -15 -9 -15 -5 0 -12 -17 -16 -37 -4 -21 -11
-40 -16 -43 -8 -6 -9 -17 -6 -115 1 -27 -1 -63 -3 -80 l-5 -30 69 0 69 0 15
43 c16 48 41 60 94 43 20 -6 50 -7 76 -2 41 8 69 -3 38 -15 -36 -14 -4 -84 37
-84 34 0 14 -115 -26 -148 -9 -8 -13 -20 -10 -28 3 -8 0 -14 -6 -14 -6 0 -11
-11 -11 -25 0 -14 -4 -25 -10 -25 -5 0 -10 5 -10 10 0 14 -38 -9 -67 -40 -12
-14 -20 -31 -18 -38 3 -7 -4 -12 -15 -12 -11 0 -20 -4 -20 -9 0 -14 -63 -72
-69 -63 -18 25 -60 42 -107 42 -44 0 -52 3 -57 21 -5 17 -11 19 -41 14 -50
-10 -63 2 -35 31 17 18 23 37 23 72 1 44 -1 47 -25 50 -36 4 -81 -36 -81 -71
0 -15 -3 -27 -6 -27 -5 0 -111 78 -122 90 -16 17 -143 45 -188 41 -21 -2 -3
-21 19 -21 11 0 52 -7 91 -16 64 -15 78 -23 136 -76 45 -42 67 -57 72 -48 11
18 22 -5 15 -33 -5 -19 1 -30 25 -51 17 -14 36 -26 41 -26 6 0 8 -8 5 -17 -8
-27 36 -53 97 -57 29 -2 69 -12 88 -21 56 -30 101 -36 121 -18 20 18 48 11 48
-12 0 -8 -9 -23 -20 -32 -13 -11 -20 -30 -20 -51 0 -29 3 -32 20 -27 10 3 30
1 42 -6 35 -18 79 -57 71 -62 -12 -8 -79 18 -98 37 -19 18 -63 32 -73 22 -3
-4 0 -16 7 -27 18 -31 8 -33 -42 -10 -40 18 -87 28 -87 18 0 -2 9 -22 20 -45
22 -44 34 -52 44 -27 9 26 27 17 20 -10 -4 -15 -2 -25 5 -25 6 0 11 -7 11 -16
0 -8 -4 -13 -8 -10 -4 2 -14 1 -22 -5 -12 -7 -10 -9 8 -9 29 0 102 -23 102
-31 0 -4 -28 -6 -62 -6 -54 2 -68 -2 -99 -25 -32 -25 -38 -26 -72 -16 -20 6
-37 17 -37 23 0 6 -13 24 -30 40 -35 34 -38 51 -10 58 14 4 18 10 13 23 -4 11
-3 15 5 10 6 -3 13 -2 17 4 3 5 0 10 -7 10 -9 1 -7 5 5 14 26 20 21 42 -13 56
-28 12 -29 13 -13 36 13 21 20 23 57 18 22 -4 56 -15 74 -25 52 -30 96 -22 57
11 -8 6 -13 17 -12 22 3 14 -83 66 -110 67 -13 1 -23 5 -23 9 0 10 -70 37 -87
34 -7 -2 -13 2 -13 8 0 5 -5 10 -12 10 -6 0 -39 13 -72 29 -34 16 -72 31 -86
34 -39 9 -124 40 -130 47 -3 4 -36 26 -73 49 -84 51 -166 74 -252 69 -51 -3
-65 0 -69 12 -2 8 -4 -30 -5 -85 l-1 -101 43 4 42 4 -34 -32 c-26 -24 -36 -28
-42 -18 -5 7 -8 -39 -7 -107 1 -66 3 -94 5 -62 2 31 8 57 12 57 5 0 20 -9 34
-20 14 -11 51 -26 83 -33 94 -22 82 -43 -30 -54 -34 -3 -68 -12 -77 -19 -9 -8
-19 -11 -22 -7 -4 3 -7 -219 -7 -495 l0 -502 115 0 115 0 0 29 c0 43 17 47 30
6 l12 -35 815 0 c749 0 814 1 802 16 -10 12 -25 15 -59 11 -52 -5 -70 -1 -70
18 0 17 -46 27 -110 24 -38 -2 -55 2 -68 15 -16 18 -16 18 5 13 12 -3 30 1 40
8 14 11 15 15 4 28 -7 9 -10 20 -7 26 7 10 -16 21 -47 21 -28 0 -53 46 -30 54
24 10 31 7 38 -14 3 -11 15 -20 25 -20 10 0 25 -7 34 -15 9 -9 33 -15 64 -15
51 0 122 -26 177 -64 42 -29 46 -36 39 -74 l-6 -32 856 0 c611 0 855 4 850 11
-4 8 0 8 14 0 11 -6 63 -11 115 -11 91 0 95 1 90 21 -4 12 3 32 16 50 23 30
21 49 -5 49 -8 0 -14 4 -14 9 0 6 -12 9 -27 8 -33 -2 -39 24 -8 33 43 11 25
50 -23 50 -15 0 -22 5 -19 13 2 7 18 11 40 9 31 -3 37 0 37 16 0 18 -4 19 -37
12 -21 -4 -72 -11 -113 -14 l-75 -6 55 26 c72 34 90 51 90 85 0 15 6 34 13 41
6 7 13 21 14 32 1 16 -4 18 -38 13 -32 -4 -43 -1 -61 19 -35 36 -86 32 -153
-12 -43 -29 -61 -35 -85 -31 -19 4 -30 2 -30 -4 0 -7 -10 -9 -27 -5 -16 4 -44
10 -63 14 -28 6 -34 12 -32 27 2 11 8 23 13 26 20 12 -60 45 -126 52 -14 2
-20 9 -19 27 1 14 -4 28 -10 32 -16 11 -100 10 -130 -2 -16 -6 -35 -6 -48 0
-13 5 -18 9 -13 10 26 2 36 17 26 42 -8 21 -18 26 -65 32 -64 7 -106 21 -106
36 0 5 13 10 29 10 36 0 46 13 27 33 -11 11 -12 17 -3 26 9 9 9 16 -1 31 -16
27 -15 30 8 30 11 0 20 -5 20 -10 0 -6 7 -13 15 -16 8 -3 34 -26 58 -50 55
-54 70 -57 61 -9 -7 37 5 46 26 20 7 -8 21 -15 32 -15 10 0 21 -7 24 -15 4 -8
15 -15 26 -15 22 0 57 -37 58 -61 0 -11 13 -18 40 -23 22 -3 40 -11 40 -16 0
-6 9 -10 20 -10 11 0 20 -4 20 -10 0 -5 -6 -10 -14 -10 -23 0 -29 -19 -9 -27
10 -4 24 -13 32 -21 7 -7 20 -11 28 -8 13 5 62 -16 106 -47 15 -10 21 -9 35
10 15 21 23 22 77 18 68 -6 185 4 185 15 0 10 -137 33 -150 25 -5 -3 -10 -1
-10 4 0 6 11 11 24 11 14 0 31 6 38 13 7 7 32 19 56 27 28 9 41 18 38 27 -3 7
1 13 10 13 9 0 12 5 8 12 -5 8 0 9 16 5 26 -7 84 19 75 33 -4 6 -17 10 -31 10
-17 0 -27 8 -34 25 -6 16 -14 23 -25 19 -9 -4 -15 0 -15 10 0 9 6 13 14 10 9
-3 19 4 26 17 11 20 10 21 -14 15 -55 -14 -20 37 46 66 27 12 36 21 32 32 -4
10 -1 16 9 16 8 0 14 -8 13 -17 -1 -13 8 -19 29 -21 17 -1 41 -8 53 -15 20
-10 25 -8 35 8 7 11 14 34 17 50 4 24 11 31 33 33 25 3 28 0 25 -20 -2 -18 2
-24 22 -26 14 -1 36 4 50 11 32 16 33 43 2 39 -13 -2 -32 4 -42 13 -13 12 -27
15 -48 10 -18 -4 -33 -2 -37 5 -11 18 0 22 71 26 37 3 69 6 71 8 2 2 1 11 -3
20 -5 12 -17 17 -43 16 -69 -3 -91 0 -91 14 0 15 41 26 99 27 l36 0 -30 14
c-16 7 -39 17 -50 20 -19 7 -19 7 3 18 12 5 22 13 22 18 0 4 13 12 29 17 22 8
28 15 25 29 -7 26 40 58 112 77 63 17 79 12 95 -31 4 -12 20 -25 34 -28 14 -3
36 -7 50 -10 14 -3 24 -9 21 -13 -11 -19 308 18 324 37 8 10 75 31 98 31 11 0
24 5 27 10 3 6 -1 10 -10 10 -9 0 -13 4 -10 10 3 5 15 10 26 10 11 0 27 7 35
15 9 8 27 18 42 21 96 21 133 36 141 57 11 29 44 44 110 51 29 3 58 9 65 14
17 14 129 42 164 42 25 0 32 4 32 20 0 16 7 20 31 20 36 0 122 -20 129 -30 3
-4 23 -10 45 -13 22 -3 69 -12 105 -20 149 -34 159 -32 167 29 5 36 2 41 -21
52 -15 7 -33 12 -41 12 -22 0 -18 27 5 33 12 3 20 14 20 26 0 18 -6 21 -41 21
-31 0 -47 6 -64 24 -18 20 -36 25 -100 31 -43 4 -112 5 -154 1 -143 -13 -136
-13 -139 13 -2 13 -15 35 -28 50 -30 32 -31 51 -1 52 51 2 113 -3 127 -11 9
-5 22 -5 30 0 11 7 11 11 1 24 -28 33 -88 37 -256 17 -70 -8 -89 -6 -113 12
-9 7 -9 13 -1 23 9 11 8 14 -5 14 -9 0 -16 -7 -16 -15 0 -11 -11 -15 -37 -15
-21 0 -55 -5 -77 -9 -25 -6 -48 -6 -65 1 -36 14 -159 38 -197 38 -20 0 -34 6
-38 16 -9 25 -7 64 4 64 6 0 10 7 10 16 0 13 7 15 38 9 20 -4 39 -11 40 -16 2
-5 21 -9 43 -9 32 0 39 3 39 20 0 29 36 60 70 60 32 0 36 11 20 60 l-8 25 -1
-28 -1 -28 -81 3 c-68 2 -84 6 -93 22 -8 14 -8 20 2 23 23 9 12 29 -28 52 -22
12 -40 28 -40 35 0 8 -8 16 -17 19 -10 4 -29 15 -43 26 -15 13 -48 23 -82 27
l-58 7 0 -37 c0 -25 5 -39 17 -43 25 -10 63 -45 63 -58 0 -6 -9 -21 -20 -33
-12 -12 -20 -35 -20 -55 0 -19 -8 -42 -20 -54 -17 -19 -24 -20 -54 -11 -40 13
-86 4 -86 -17 0 -8 -8 -15 -18 -15 -11 0 -27 -9 -38 -21 -10 -12 -38 -32 -61
-46 -24 -14 -43 -30 -43 -37 0 -16 -36 -48 -75 -66 -16 -8 -38 -21 -47 -28
-10 -8 -24 -12 -32 -9 -16 6 -30 -40 -15 -49 5 -3 9 -13 9 -22 -1 -16 -1 -16
-11 1 -18 31 -36 18 -49 -38 -9 -36 -16 -51 -21 -43 -12 19 -60 -10 -77 -45
-7 -15 -18 -27 -24 -27 -6 0 -26 -12 -45 -26 -18 -14 -43 -24 -55 -22 -19 3
-14 10 38 63 33 33 73 70 88 82 l27 23 -28 -4 c-40 -4 -73 -24 -73 -43 0 -12
-3 -13 -14 -4 -21 18 2 56 48 81 35 18 41 19 56 5 26 -24 31 -17 7 9 -13 14
-36 28 -53 32 -54 13 -74 44 -29 44 14 0 25 4 25 9 0 5 13 12 28 16 27 5 72
52 72 73 0 5 20 30 45 55 25 26 45 51 45 57 0 5 4 10 10 10 5 0 12 11 16 25 3
14 10 25 15 25 5 0 9 7 9 15 0 8 5 15 10 15 6 0 10 6 10 14 0 9 7 12 19 9 12
-3 26 3 37 16 10 12 24 21 30 21 23 0 36 27 24 49 -13 26 -29 26 -69 3 -20
-11 -31 -25 -31 -39 0 -18 -6 -23 -25 -23 -16 0 -25 -6 -25 -15 0 -8 -4 -15
-10 -15 -5 0 -10 -8 -10 -17 0 -9 -3 -13 -7 -10 -4 4 -8 53 -10 110 -6 142 -6
143 2 226 6 60 10 74 26 78 10 3 17 9 14 13 -3 4 8 13 24 20 23 9 33 9 51 -2
18 -10 24 -10 27 0 6 16 23 15 23 -2 0 -8 10 -16 23 -20 12 -3 31 -13 42 -23
15 -14 35 -18 80 -16 33 0 62 2 65 3 3 1 16 3 30 5 113 13 186 27 188 35 2 5
19 14 38 20 37 13 94 -1 94 -22 0 -6 7 -7 16 -4 26 10 64 -4 64 -25 0 -11 7
-19 18 -19 13 0 14 -2 3 -9 -8 -5 -10 -14 -6 -21 4 -7 2 -16 -6 -21 -12 -8
-12 -11 1 -19 12 -8 11 -10 -8 -10 -21 0 -23 -4 -21 -34 2 -19 0 -38 -4 -42
-12 -12 -8 -24 8 -24 9 0 15 -9 15 -21 0 -19 4 -21 48 -15 35 4 54 1 68 -9 28
-21 107 -19 151 5 24 13 57 20 89 20 69 0 131 34 126 69 -4 28 -24 51 -45 51
-17 0 -20 71 -3 82 6 4 5 12 -3 22 -8 9 -10 16 -5 16 5 0 3 4 -4 9 -14 8 -20
29 -21 69 -1 19 -6 22 -41 22 -22 0 -40 5 -40 10 0 6 33 10 80 10 77 0 80 -1
80 -23 0 -32 27 -55 70 -59 34 -3 35 -4 32 -40 l-4 -38 64 -1 c35 -1 84 -1
111 0 27 1 47 -2 47 -9 0 -5 12 -10 26 -10 14 0 34 -4 44 -10 40 -21 55 -143
22 -173 -22 -20 -89 -23 -95 -4 -2 6 -2 2 0 -10 3 -19 -1 -23 -21 -23 -55 0
-72 26 -39 62 15 17 15 18 -4 18 -11 0 -29 11 -41 25 -12 14 -29 25 -37 25 -8
0 -15 8 -15 18 0 11 -3 13 -8 6 -4 -6 -22 -15 -39 -19 -18 -3 -33 -10 -33 -15
0 -4 -9 -10 -20 -13 -17 -4 -19 -11 -13 -56 4 -35 2 -51 -6 -51 -6 0 -11 -8
-11 -17 0 -9 -8 -25 -17 -35 -11 -12 -13 -22 -7 -26 6 -4 13 -15 17 -24 3 -10
19 -20 34 -24 47 -10 54 -14 48 -24 -9 -15 78 -13 94 3 11 9 14 9 18 0 3 -8
23 -13 49 -13 58 0 84 -24 81 -79 -3 -74 61 -107 109 -56 19 21 32 25 66 24
24 -1 79 2 124 6 57 5 83 4 88 -4 12 -19 46 -13 46 9 0 15 7 20 25 20 14 0 25
5 25 11 0 7 10 9 25 7 14 -3 25 -2 25 2 0 4 53 10 117 13 65 4 119 10 120 14
3 8 150 7 195 -1 20 -4 28 -1 33 14 6 18 79 39 92 26 4 -3 -1 -6 -11 -6 -14 0
-16 -6 -10 -36 4 -20 3 -39 -2 -43 -5 -3 -15 -18 -21 -32 -11 -25 -13 -26 -85
-22 -40 3 -99 0 -130 -5 -32 -5 -58 -6 -58 -1 0 4 -28 9 -62 11 -35 2 -71 8
-80 12 -13 6 -18 4 -18 -6 0 -26 24 -38 76 -38 73 0 84 -6 84 -46 0 -25 -4
-34 -17 -34 -15 0 -14 -2 3 -15 16 -13 17 -16 4 -25 -8 -5 -22 -10 -31 -10
-45 0 -89 -111 -89 -222 0 -57 6 -91 25 -156 6 -19 3 -23 -24 -28 -17 -4 -31
-10 -31 -15 0 -5 -7 -9 -15 -9 -8 0 -15 -6 -15 -14 0 -7 -7 -19 -16 -27 -10
-8 -13 -21 -9 -36 4 -16 1 -23 -10 -23 -8 0 -15 5 -15 10 0 6 -3 9 -7 9 -5 -1
-35 0 -68 1 -54 2 -57 3 -32 13 75 30 -6 63 -145 58 -44 -2 -33 -18 17 -25 24
-4 47 -11 50 -17 9 -14 -134 1 -170 17 -58 26 -148 45 -189 39 -37 -6 -45 -3
-76 27 -30 28 -43 33 -90 35 -30 1 -68 4 -85 5 -26 3 -30 -1 -33 -23 -2 -16 6
-35 23 -53 25 -27 32 -46 17 -46 -5 0 -57 9 -116 19 -59 11 -113 18 -119 15
-7 -2 -13 -22 -14 -44 -2 -38 -2 -40 40 -50 23 -6 55 -15 71 -20 16 -6 44 -10
63 -10 27 0 33 4 31 18 -2 13 3 17 22 15 14 -1 49 -3 78 -4 56 -3 71 -22 30
-39 l-23 -9 23 0 c14 -1 22 -7 22 -19 0 -10 11 -28 25 -40 21 -19 37 -22 85
-21 58 2 61 1 105 -42 25 -24 45 -47 45 -51 0 -13 -35 -14 -60 -2 -47 23 -250
18 -250 -6 0 -10 106 -28 228 -38 69 -6 95 -5 100 4 9 15 62 6 62 -10 0 -7 18
-22 40 -35 44 -25 56 -52 46 -106 -6 -31 -4 -36 23 -50 17 -8 38 -15 48 -15
10 0 35 -9 55 -20 25 -13 67 -22 122 -26 82 -7 85 -6 109 20 13 14 33 26 44
26 11 0 34 5 52 11 24 8 31 17 31 37 0 20 3 23 12 14 7 -7 21 -12 33 -12 26 0
73 -89 53 -102 -8 -5 -9 -8 -2 -8 6 0 18 -14 25 -32 12 -29 16 -46 21 -86 1
-7 7 -11 13 -8 7 2 21 -24 35 -64 19 -55 22 -74 13 -92 -8 -18 -7 -30 3 -49 7
-13 13 -32 14 -43 0 -11 5 -16 13 -13 8 3 14 -5 15 -21 1 -14 7 -31 12 -36 6
-6 10 -18 10 -28 0 -11 8 -31 18 -46 10 -15 28 -41 40 -59 12 -18 22 -37 22
-43 0 -5 6 -10 13 -10 13 0 57 -32 92 -67 20 -20 32 -23 109 -23 l86 0 0 615
c0 451 -3 621 -12 642 -6 15 -26 43 -42 62 l-31 34 43 -6 42 -5 0 63 0 63 -60
-5 c-62 -6 -120 9 -120 32 0 6 -13 30 -28 51 -15 21 -36 61 -46 88 -11 28 -26
51 -37 53 -10 3 -21 14 -25 25 -7 25 -35 58 -48 58 -11 0 -35 31 -36 46 0 8
11 8 40 1 22 -6 40 -15 40 -19 0 -4 9 -8 19 -8 11 0 26 -8 33 -17 8 -11 27
-18 48 -19 85 -3 141 -17 159 -40 11 -13 28 -24 40 -24 19 0 21 5 21 75 0 63
-3 77 -17 82 -38 13 -45 25 -27 44 10 11 23 19 31 19 9 0 13 16 13 60 l0 59
-37 10 c-21 6 -44 11 -52 11 -7 0 -29 9 -47 21 -19 11 -49 21 -69 22 -20 1
-35 7 -35 15 0 17 -17 15 -24 -3 -6 -17 -26 -21 -26 -5 0 14 -34 47 -67 63
-15 8 -59 17 -98 21 -63 6 -196 44 -212 60 -4 3 -20 6 -37 6 -39 0 -57 26 -67
95 -8 50 14 145 33 145 4 0 8 18 8 39 l0 39 108 -4 c59 -3 140 -9 180 -14 40
-6 102 -10 138 -10 36 0 64 -4 64 -10 0 -5 18 -10 39 -10 25 0 41 -5 45 -15 4
-10 16 -13 43 -11 21 3 55 5 76 5 l37 1 0 1741 c0 1890 4 1769 -53 1769 -14 0
-28 -6 -31 -12 -3 -10 -8 -9 -18 2 -13 15 -58 16 -58 0 0 -4 -9 -10 -20 -13
-11 -3 -18 -1 -15 3 3 5 -1 11 -7 13 -7 3 -2 6 12 6 23 1 24 2 7 19 -17 16
-19 16 -28 0 -17 -30 -29 -20 -29 22 0 27 4 40 14 40 9 0 15 18 19 55 4 43 13
64 36 90 27 31 29 37 18 65 -9 24 -17 30 -41 30 -16 0 -37 -7 -46 -15 -9 -8
-51 -21 -94 -28 l-78 -14 -22 31 c-40 54 -39 62 13 116 26 27 57 51 67 51 48
4 111 -4 136 -17 42 -22 84 -18 105 10 21 26 73 56 98 56 13 0 15 21 15 145
l0 145 -36 0 c-28 0 -43 7 -60 28 -13 15 -24 34 -24 43 0 9 -9 24 -20 34 -17
16 -20 31 -20 117 0 54 4 98 9 98 24 0 30 298 7 354 -19 46 -25 318 -7 340 6
7 14 42 17 77 3 35 10 77 14 92 5 16 7 78 3 138 -6 99 -4 112 14 137 10 15 22
35 26 45 3 9 12 17 19 17 7 0 23 11 36 24 21 23 22 31 22 200 l0 176 -560 0
-560 0 0 -40 c0 -22 -4 -40 -10 -40 -13 0 -13 -67 0 -75 6 -3 10 -16 10 -28 1
-13 16 -34 40 -52 24 -19 39 -38 40 -52 0 -13 6 -23 15 -23 18 0 28 -36 29
-111 1 -33 4 -59 9 -59 4 0 7 -18 7 -40 0 -22 4 -40 8 -40 4 0 9 -20 10 -45 1
-25 9 -59 18 -76 8 -17 18 -50 21 -73 9 -63 4 -201 -7 -204 -5 -2 -10 -21 -10
-43 0 -21 -4 -39 -10 -39 -5 0 -10 -22 -10 -48 0 -48 0 -49 -40 -61 -29 -9
-40 -17 -40 -31 0 -23 -3 -24 -46 -8 -22 8 -43 8 -71 1 -27 -7 -46 -7 -58 0
-13 7 -24 6 -39 -3 -14 -9 -21 -10 -24 -1 -5 14 -82 15 -82 1 0 -5 -7 -10 -15
-10 -13 0 -14 -4 -5 -20 8 -15 7 -26 -7 -47 -22 -33 -23 -102 -3 -371 10 -140
11 -195 3 -200 -6 -4 -13 -20 -15 -36 -2 -22 -10 -32 -30 -38 -31 -11 -88 -60
-88 -77 0 -6 -11 -11 -25 -11 -18 0 -26 -7 -31 -25 -3 -14 -10 -25 -15 -25 -5
0 -9 -15 -9 -34 0 -33 -2 -34 -32 -31 -18 1 -53 8 -78 15 -53 14 -115 -2 -134
-34 -6 -11 -19 -27 -28 -37 -9 -10 -24 -29 -33 -43 -9 -14 -46 -39 -81 -56
-36 -17 -62 -35 -59 -40 4 -6 -37 -10 -110 -10 -64 0 -124 -4 -134 -10 -10 -5
-31 -11 -47 -14 -16 -3 -30 -10 -32 -14 -1 -5 -9 -18 -17 -28 -13 -17 -14 -16
-15 24 l0 42 -40 0 -40 0 0 -40 c0 -22 5 -40 10 -40 13 0 13 -97 0 -105 -5 -3
-10 -20 -10 -36 0 -37 -20 -59 -54 -59 -25 0 -26 -2 -26 -61 0 -37 4 -58 10
-54 6 3 10 13 10 21 0 8 7 17 15 20 8 4 15 12 15 20 0 8 7 14 15 14 8 0 15 -7
15 -16 0 -8 -5 -12 -11 -9 -7 5 -9 -14 -6 -61 2 -38 2 -52 0 -31 -6 52 -21 46
-25 -10 -2 -39 -6 -48 -20 -47 -13 1 -18 -6 -18 -27 0 -21 4 -27 15 -23 8 4
15 1 15 -6 0 -6 -8 -10 -17 -8 -13 2 -19 14 -21 41 -3 35 -5 37 -38 37 l-34 0
0 -80 0 -80 -39 0 c-30 0 -41 -5 -46 -19 -5 -18 -7 -18 -30 5 -13 13 -30 24
-37 24 -9 0 -9 -3 2 -10 13 -9 13 -11 0 -20 -22 -14 -46 -12 -60 5 -9 11 -9
15 -1 15 7 0 5 9 -6 24 -12 15 -20 20 -25 13 -4 -7 -11 -1 -17 15 -6 16 -19
28 -33 30 -19 2 -24 11 -30 54 -11 76 -24 104 -48 104 -12 0 -30 5 -41 11 -11
5 -88 15 -172 21 -129 9 -161 8 -211 -5 -33 -9 -63 -14 -68 -11 -5 3 -17 -4
-28 -15 -15 -18 -19 -46 -24 -164 -3 -78 -11 -270 -18 -427 -7 -157 -13 -311
-12 -342 0 -63 -5 -68 -76 -68 -20 0 -41 -5 -48 -12 -21 -21 -25 0 -13 64 7
35 13 74 13 88 1 38 -26 126 -45 145 -27 26 -63 76 -87 119 -16 30 -20 48 -15
77 6 36 3 42 -34 80 -23 23 -41 45 -41 48 0 3 -15 22 -33 41 -18 19 -41 52
-52 72 -10 20 -28 38 -38 40 -14 2 -24 18 -35 51 -8 26 -18 47 -22 47 -11 0
-90 107 -90 122 0 7 -9 19 -20 26 -18 11 -20 10 -20 -18 0 -37 -26 -41 -32 -5
-4 20 3 31 33 56 31 25 38 36 33 55 -4 15 -2 24 5 24 6 0 11 -4 11 -8 0 -5 22
-9 48 -10 27 0 68 -8 91 -18 23 -9 43 -15 44 -13 10 14 23 89 16 89 -5 0 -9 6
-9 13 0 8 -18 22 -40 32 -22 10 -40 21 -40 25 0 3 -17 12 -37 19 -21 8 -41 19
-45 24 -4 6 -51 12 -107 13 -55 2 -105 5 -110 8 -5 4 -22 1 -38 -5 -15 -5 -44
-7 -63 -4 -29 6 -32 9 -20 18 9 7 17 30 19 52 1 22 7 42 12 43 12 5 11 82 -1
82 -5 0 -10 11 -10 23 0 13 -3 27 -7 31 -4 3 -8 14 -9 24 -20 142 -38 193 -77
216 -28 17 -54 20 -199 21 -195 2 -193 3 -223 -102 -17 -56 -20 -60 -30 -40
-15 30 -55 36 -55 8 0 -14 -6 -21 -20 -21 -12 0 -20 -7 -21 -17 0 -15 -1 -15
-8 2 -5 11 -11 100 -15 198 -5 133 -4 182 5 193 10 12 8 17 -7 29 -18 12 -19
31 -21 262 -3 290 -6 338 -25 355 -20 19 -50 38 -70 44 -10 4 -19 14 -22 23
-2 9 -9 37 -16 64 -14 50 -37 62 -66 32 -19 -18 -49 -5 -59 25 -11 35 -54 25
-97 -22 -20 -24 -38 -49 -38 -55 0 -7 -11 -20 -25 -29 -24 -16 -27 -16 -40 2
-22 30 -32 95 -33 213 -1 114 -11 154 -37 145 -8 -4 -15 -1 -15 5 0 6 -9 11
-19 11 -25 0 -28 10 -30 98 -2 72 -1 73 21 70 15 -2 24 -11 26 -24 2 -12 16
-36 33 -55 16 -18 29 -35 29 -38 0 -4 9 -12 20 -19 18 -11 24 -9 50 20 17 18
30 40 30 50 0 10 5 18 11 18 6 0 8 8 4 19 -3 11 -1 22 5 26 14 8 14 355 0 355
-5 0 -10 18 -10 40 l0 40 -360 0 -360 0 0 -39 c0 -22 4 -41 10 -43 6 -2 10
-80 10 -200 1 -109 5 -198 9 -198 4 0 12 -39 18 -87 11 -98 4 -129 -35 -149
-26 -13 -72 -71 -72 -91 0 -7 -4 -13 -9 -13 -17 0 -19 -42 -6 -88 8 -25 11
-49 6 -52 -10 -6 -9 -240 2 -240 4 0 7 -29 7 -65 0 -37 -4 -65 -10 -65 -5 0
-10 -6 -10 -13 0 -7 -9 -18 -21 -25 -17 -11 -20 -11 -13 0 6 10 4 10 -9 -1 -9
-7 -17 -19 -17 -26 0 -7 -7 -16 -16 -19 -8 -3 -12 -10 -9 -16 3 -5 0 -10 -8
-10 -24 0 5 -140 33 -160 4 -3 5 -22 2 -42 l-4 -38 -107 0 -107 0 -2 36 c-3
36 -9 48 -49 89 -13 12 -23 31 -23 43 0 11 -7 23 -16 26 -14 5 -14 9 -3 22 10
12 10 17 1 23 -8 5 -9 17 -2 41 6 19 10 36 10 37 0 2 -13 3 -30 3 -16 0 -30
-4 -30 -10 0 -5 -9 -10 -20 -10 -18 0 -20 7 -20 65 0 55 -3 68 -25 90 -14 14
-32 25 -40 25 -9 0 -15 10 -15 25 0 18 -5 25 -20 25 -63 0 -139 83 -140 152 0
20 -5 40 -10 43 -6 4 -8 10 -5 15 8 14 -17 220 -27 220 -4 0 -8 17 -8 39 0 41
-31 91 -56 91 -8 0 -14 7 -14 15 0 8 -7 15 -15 15 -13 0 -15 41 -18 283 -1
155 -3 -1224 -5 -3064z m1099 2100 c7 -18 13 -42 14 -55 0 -13 11 -34 23 -46
20 -20 31 -23 100 -21 112 3 122 -4 122 -89 0 -64 -1 -68 -23 -68 -13 0 -29 6
-35 12 -8 8 -15 9 -20 3 -4 -6 -23 -11 -42 -13 -19 -1 -38 -8 -42 -15 -4 -6
-10 -8 -15 -4 -4 5 -2 12 6 16 10 6 7 15 -14 37 -52 56 -55 61 -55 72 0 7 -4
12 -10 12 -5 0 -10 9 -10 20 0 17 -7 20 -41 20 -40 0 -41 0 -34 33 7 35 46
117 56 117 4 0 12 -14 20 -31z m43 -331 c18 -65 22 -131 14 -205 -11 -94 -5
-146 21 -172 21 -21 41 -73 41 -106 0 -24 59 -90 89 -100 23 -7 35 -49 21 -75
-5 -10 -10 -28 -10 -39 0 -28 -11 -26 -44 4 -15 14 -31 25 -37 25 -5 0 -9 7
-9 15 0 7 -8 18 -17 24 -14 7 -18 21 -16 62 1 40 -4 57 -19 73 -39 41 -52 68
-49 107 1 21 -5 52 -13 67 -10 20 -13 42 -9 68 5 31 8 34 14 19 6 -17 8 -15 8
9 1 17 -8 39 -20 52 -28 30 -30 121 -2 158 20 28 32 32 37 14z m690 -546 c19
-10 61 -49 92 -85 32 -37 61 -67 65 -67 4 0 10 -14 14 -30 5 -21 12 -30 23
-28 15 3 17 -12 15 -145 -1 -118 -5 -160 -21 -210 -11 -34 -26 -82 -32 -107
-25 -93 -67 -190 -82 -190 -5 0 -13 11 -18 25 -5 14 -14 25 -18 25 -5 0 -19
28 -32 62 -12 34 -29 68 -36 76 -12 11 -14 5 -14 -43 0 -48 -4 -59 -27 -81
l-28 -26 -17 24 c-10 13 -26 33 -37 44 -13 15 -16 25 -9 32 6 6 5 19 -5 38 -8
16 -27 72 -41 124 -15 52 -35 106 -44 120 -23 35 -21 249 2 285 9 13 16 31 16
39 0 8 6 19 13 23 8 4 18 15 23 24 5 9 29 33 52 53 51 42 92 47 146 18z m4677
-134 c65 -13 109 -58 109 -109 0 -31 -4 -39 -18 -39 -11 0 -33 -7 -50 -15 -37
-19 -223 -16 -230 3 -2 7 -8 12 -13 12 -6 0 -23 10 -39 21 -24 19 -28 27 -23
53 3 17 13 43 22 59 15 27 17 27 106 26 49 0 111 -5 136 -11z m-6026 -115 c78
-35 130 -83 90 -83 -9 0 -18 -7 -21 -15 -4 -8 -11 -15 -18 -15 -6 -1 -21 -9
-33 -19 -28 -23 -28 -67 0 -97 20 -24 20 -75 -1 -82 -6 -2 -16 7 -21 20 -6 12
-10 17 -10 11 -1 -15 -41 -18 -41 -3 0 6 -5 10 -12 10 -19 0 -58 42 -58 62 0
11 -7 18 -20 18 -17 0 -20 7 -20 40 0 27 -4 40 -14 40 -7 0 -16 9 -19 21 -4
16 -11 19 -26 14 -18 -6 -21 -2 -21 26 0 20 9 42 21 55 20 21 27 22 108 17 47
-4 100 -12 116 -20z m6475 -369 c0 -10 6 -14 14 -11 11 4 13 -1 10 -21 -6 -34
-13 -40 -23 -23 -6 9 -11 10 -15 2 -4 -6 -2 -11 3 -11 6 0 11 -9 11 -20 0 -11
-4 -20 -9 -20 -5 0 -11 -9 -14 -20 -3 -14 -14 -20 -31 -20 -20 0 -26 -5 -26
-21 0 -26 -22 -20 -26 7 -1 10 -6 34 -9 53 -5 27 -3 36 14 48 12 8 21 19 21
25 0 6 7 20 17 30 20 23 63 24 63 2z m-6583 -582 c12 -7 58 -12 103 -12 69 0
81 -2 76 -15 -5 -13 13 -15 127 -15 137 0 162 -5 147 -29 -4 -8 -6 -20 -3 -28
9 -22 -16 -44 -37 -33 -37 20 -67 11 -106 -30 -21 -22 -43 -40 -49 -40 -10 -1
-75 -56 -75 -64 0 -3 -55 -61 -122 -129 -68 -68 -136 -143 -152 -166 -17 -22
-33 -41 -38 -41 -4 0 -8 -6 -8 -13 0 -7 -9 -18 -20 -25 -11 -7 -20 -19 -20
-27 0 -8 -9 -15 -20 -15 -15 0 -20 -7 -20 -25 0 -22 -4 -25 -40 -25 -27 0 -42
6 -49 18 -7 12 -10 -27 -11 -135 0 -95 -4 -153 -10 -153 -6 0 -11 69 -12 183
l-2 182 -6 -145 -5 -145 -8 92 c-8 99 -9 816 -1 838 7 17 328 15 361 -3z
m3819 -569 c4 -25 4 -114 1 -197 -6 -147 -20 -236 -38 -236 -5 0 -9 57 -9 127
0 141 19 353 31 353 4 0 11 -21 15 -47z m-913 -43 c-4 -13 0 -20 10 -20 21 0
26 -20 20 -69 -5 -34 -3 -40 10 -36 8 4 18 1 23 -6 13 -21 15 -131 3 -146 -18
-21 -5 -102 20 -126 17 -18 21 -18 21 -5 0 8 -6 21 -14 27 -7 6 -14 32 -14 57
-1 39 1 44 13 34 8 -7 15 -19 15 -26 0 -7 9 -28 20 -46 24 -39 26 -71 5 -92
-17 -17 -10 -46 12 -46 10 0 14 7 10 20 -3 11 -4 20 -2 20 2 0 10 3 18 6 10 3
20 -6 31 -27 20 -41 21 -39 -12 -39 -36 0 -57 -36 -49 -79 4 -18 2 -31 -3 -31
-6 0 -10 7 -10 15 0 8 -16 40 -36 72 -27 40 -37 69 -39 101 -1 24 -6 47 -11
50 -17 13 -32 57 -43 132 -6 41 -11 80 -11 85 2 81 1 115 -5 138 -5 17 -3 33
5 42 17 20 19 19 13 -5z m3039 -33 c25 -23 49 -52 53 -64 3 -13 10 -23 15 -23
5 0 14 -2 22 -5 8 -3 18 6 25 25 6 16 18 30 27 30 14 0 16 -15 16 -95 0 -76
-3 -93 -14 -89 -20 8 -28 -23 -20 -83 5 -41 14 -62 41 -93 20 -22 43 -40 53
-40 13 0 20 -11 25 -39 4 -25 13 -41 24 -44 14 -3 17 -12 13 -37 -3 -19 0 -35
8 -40 9 -6 8 -14 -4 -38 -9 -17 -21 -34 -27 -38 -8 -4 -9 -3 -5 4 4 7 2 12 -3
12 -6 0 -11 -7 -11 -16 0 -10 -6 -13 -17 -10 -17 5 -18 -6 -17 -142 1 -109 -2
-153 -13 -169 -20 -33 -37 -29 -29 7 3 17 2 29 -3 26 -5 -3 -12 5 -15 19 -5
18 -15 27 -36 32 -17 3 -30 9 -30 13 0 8 -150 25 -187 21 -12 -1 -32 8 -43 19
-18 18 -27 20 -44 12 -87 -40 -133 -37 -181 12 -26 27 -30 38 -29 85 0 31 5
56 11 58 6 2 25 17 42 34 17 16 39 29 48 29 25 0 65 51 59 75 -26 100 -45 198
-45 237 -1 53 25 189 38 198 4 3 13 20 19 38 6 17 30 52 53 77 38 41 47 45 88
45 40 0 52 -6 93 -43z m-1837 -718 c122 -14 151 -24 164 -57 13 -34 35 -702
29 -922 -2 -106 -8 -173 -16 -187 -15 -28 -62 -41 -174 -49 -49 -3 -88 -10
-88 -15 0 -5 -11 -9 -25 -9 -22 0 -25 -4 -25 -40 0 -36 3 -40 25 -40 20 0 25
-5 25 -25 0 -20 -5 -25 -24 -25 -13 0 -26 -7 -30 -15 -9 -25 -64 -19 -90 10
-13 14 -28 25 -33 25 -5 0 -23 19 -39 43 -29 42 -29 42 -27 187 2 161 2 161
78 181 22 6 46 13 53 15 17 5 -2 42 -26 52 -30 11 -51 46 -52 84 0 21 -9 54
-19 75 -15 30 -18 52 -14 101 3 38 10 62 17 62 11 0 21 -19 56 -107 16 -38 36
-26 55 31 16 47 17 63 8 115 -12 61 -6 108 19 159 10 18 8 29 -6 53 -17 28
-17 38 -6 111 7 43 10 107 8 141 l-5 63 36 -3 c20 -2 77 -8 126 -14z m-4352
-201 c3 -24 11 -44 16 -46 6 -2 11 -28 11 -57 l0 -54 -45 -7 c-71 -10 -75 -6
-75 83 0 54 3 73 10 63 5 -8 10 -24 11 -35 1 -17 2 -17 6 -2 2 9 9 15 14 12 5
-4 9 3 9 14 0 24 20 71 30 71 4 0 10 -19 13 -42z m6667 -57 c0 -11 -5 -21 -12
-23 -8 -3 -8 -9 0 -24 11 -18 11 -18 12 4 0 12 4 22 9 22 4 0 12 -32 16 -72 7
-80 18 -108 40 -108 8 0 15 -7 15 -16 0 -14 7 -16 40 -11 22 3 40 2 40 -3 0
-4 11 -5 25 -2 37 7 55 -14 55 -64 0 -39 -3 -44 -23 -44 -18 0 -25 -8 -34 -40
-8 -33 -8 -40 4 -40 8 0 11 -4 8 -10 -3 -5 -15 -10 -25 -10 -22 0 -44 -35 -36
-55 5 -14 -2 -24 -43 -57 -30 -25 -39 -23 -77 19 -27 29 -34 45 -34 76 l0 40
50 -5 50 -5 0 63 c0 36 -4 64 -10 64 -5 0 -10 9 -10 20 0 18 -7 20 -65 20 -58
0 -69 -3 -90 -26 -14 -15 -25 -33 -25 -40 0 -8 -9 -14 -20 -14 -12 0 -20 -7
-20 -16 0 -8 -7 -22 -15 -30 -19 -19 -21 -110 -3 -116 20 -7 -22 -26 -62 -28
-62 -4 -61 -5 -54 55 6 47 4 55 -10 55 -13 0 -16 10 -16 53 0 49 2 53 38 77
20 14 44 28 52 31 8 4 40 48 70 99 30 51 60 95 67 97 7 3 13 14 13 24 0 10 7
19 15 19 8 0 19 9 25 20 14 25 40 26 40 1z m-3149 -316 c6 -41 16 -75 20 -75
18 0 51 -86 59 -154 5 -39 14 -106 21 -149 10 -67 10 -80 -2 -87 -17 -11 -31
1 -35 32 -7 58 -67 138 -102 138 -5 0 -8 -21 -6 -47 2 -27 1 -42 -2 -35 -3 6
-14 12 -23 12 -10 0 -26 9 -36 20 -10 11 -21 17 -26 15 -8 -6 -10 26 -2 64 3
18 7 21 16 12 16 -16 39 -13 65 8 26 22 29 46 6 55 -18 7 -15 52 4 49 6 -2 12
6 12 18 0 12 -4 17 -11 13 -6 -3 -4 7 4 22 11 22 13 43 6 88 -4 33 -6 63 -3
68 13 21 24 2 35 -67z m-3120 -1005 c15 0 32 -6 38 -14 6 -7 26 -17 44 -21
l32 -7 -33 -11 c-32 -12 -32 -12 -15 -37 9 -14 25 -31 34 -37 10 -8 15 -21 12
-32 -8 -31 27 -43 101 -33 77 10 106 2 106 -31 0 -14 7 -30 15 -37 24 -20 18
-32 -7 -16 -43 28 -103 31 -143 7 -36 -21 -37 -21 -63 -2 -15 10 -38 31 -51
45 -13 14 -28 23 -32 20 -5 -3 -9 5 -9 18 0 32 -13 49 -39 51 -24 1 -26 9 -36
102 -6 49 -4 58 6 48 7 -7 25 -13 40 -13z m2926 -110 c10 0 13 -8 10 -27 -2
-16 -2 -22 0 -15 3 6 11 12 18 12 7 0 16 -6 19 -12 3 -7 3 -3 1 9 -3 12 -1 24
5 28 6 4 10 -13 10 -49 0 -30 4 -56 10 -58 15 -5 18 -104 9 -295 -7 -155 -10
-175 -30 -202 -15 -20 -30 -29 -48 -29 -14 0 -44 -6 -67 -14 -37 -13 -42 -13
-53 1 -10 14 -11 13 -7 -7 3 -18 0 -22 -12 -20 -15 3 -17 15 -14 83 3 89 8 95
84 115 32 8 55 21 65 36 17 27 11 43 -10 26 -10 -9 -12 -4 -9 24 2 19 8 37 13
40 14 8 10 213 -6 279 -14 57 -19 115 -8 88 2 -7 11 -13 20 -13z m-2589 -10
c22 -11 46 -20 52 -20 14 0 110 -62 110 -71 0 -4 9 -5 20 -2 14 4 20 0 20 -10
0 -9 11 -24 25 -35 14 -11 25 -25 25 -31 0 -6 5 -11 10 -11 6 0 12 0 15 0 8
-1 65 -61 65 -70 0 -5 5 -10 11 -12 23 -8 32 -158 10 -158 -3 0 -14 18 -24 40
-9 22 -20 40 -24 40 -5 0 -17 18 -27 40 -11 22 -24 40 -30 41 -33 3 -102 -4
-124 -12 -27 -10 -66 -3 -57 11 3 5 -1 14 -7 22 -7 7 -14 27 -15 43 -5 83 -15
105 -65 150 -28 25 -54 45 -59 45 -5 0 -9 5 -9 10 0 16 33 12 78 -10z m1303
-741 c16 -17 29 -39 29 -50 0 -10 15 -32 33 -49 26 -25 29 -32 17 -40 -12 -8
-12 -14 3 -45 9 -19 24 -38 32 -42 9 -3 22 -17 30 -32 8 -14 26 -39 40 -56 15
-16 32 -37 39 -46 6 -9 37 -33 68 -53 32 -20 96 -75 144 -123 71 -72 84 -91
79 -110 -3 -14 1 -33 11 -48 15 -23 15 -25 -2 -25 -9 0 -26 7 -36 17 -17 15
-18 15 -18 -3 -1 -10 -7 -2 -14 18 -13 37 -56 83 -89 94 -10 3 -28 29 -41 57
-22 50 -44 74 -148 167 -33 29 -49 53 -54 76 -3 19 -10 34 -14 34 -16 0 -59
53 -65 81 -6 27 -49 67 -104 98 -11 7 -12 17 -1 60 6 28 16 51 22 51 5 0 23
-14 39 -31z m4629 12 c0 -5 18 -12 39 -16 54 -9 64 -24 65 -101 2 -64 -6 -95
-20 -81 -4 4 -15 0 -25 -9 -21 -19 -42 -9 -34 16 4 12 0 20 -12 23 -15 4 -14
5 4 6 16 1 20 6 16 20 -4 14 4 24 27 36 41 21 36 25 -20 15 -31 -6 -52 -4 -70
5 -14 7 -31 10 -37 8 -7 -3 -13 0 -13 5 0 6 6 12 13 15 10 4 10 7 0 18 -20 20
-15 37 10 42 40 8 57 7 57 -2z m-6419 -668 c22 -52 18 -78 -20 -119 -29 -31
-30 -35 -31 -126 -1 -32 -5 -58 -9 -58 -4 0 -5 15 -3 33 5 31 4 32 -15 15 -11
-10 -30 -18 -43 -18 -20 0 -22 4 -18 33 3 17 3 38 1 45 -7 18 -43 15 -65 -5
-19 -17 -20 -16 -36 4 -23 28 -87 40 -96 17 -4 -10 -1 -21 5 -25 9 -5 8 -14
-5 -34 -11 -17 -17 -48 -18 -90 -1 -35 -5 -70 -10 -77 -5 -8 -8 22 -7 72 1
143 5 154 67 215 31 30 61 55 68 55 7 0 14 3 16 8 12 26 174 116 191 105 5 -3
17 -25 28 -50z m251 -220 c31 -30 35 -43 14 -43 -8 0 -28 -16 -45 -36 -34 -38
-101 -74 -141 -73 -24 0 -23 1 13 31 21 17 44 46 52 64 8 19 19 34 25 34 6 0
8 10 4 25 -5 22 -3 25 22 25 17 0 39 -11 56 -27z m273 -74 c12 -19 -5 -58 -33
-73 -19 -11 -22 -15 -9 -16 13 0 17 -9 17 -40 0 -39 -1 -40 -35 -40 -28 0 -35
-4 -35 -19 0 -11 6 -21 12 -23 9 -3 8 -9 -5 -22 -16 -17 -17 -15 -17 23 0 23
-5 41 -11 41 -6 0 -10 -10 -9 -22 3 -39 0 -58 -9 -58 -5 0 -11 21 -13 47 -3
38 0 47 14 51 30 8 20 22 -16 22 -21 0 -36 -6 -40 -15 -6 -17 -43 -20 -48 -4
-2 5 -11 11 -21 13 -34 5 -17 18 95 72 62 30 120 59 128 64 20 12 28 12 35 -1z
m303 -37 c18 -16 38 -29 44 -29 40 0 188 -93 188 -118 0 -4 16 -25 35 -46 33
-37 65 -96 80 -148 6 -20 4 -23 -10 -17 -10 3 -24 1 -32 -6 -12 -9 -19 -7 -36
14 -30 34 -71 58 -101 58 -33 0 -95 -41 -96 -62 0 -14 -9 -18 -40 -18 -39 0
-40 1 -40 34 0 32 -1 33 -37 32 -52 -1 -50 24 2 38 22 7 35 15 29 18 -14 9
-148 6 -154 -4 -3 -4 -26 -8 -50 -9 -25 -1 -52 -8 -60 -14 -8 -7 -25 -16 -37
-19 -22 -7 -23 -4 -23 38 0 42 2 46 24 46 13 0 26 7 30 15 3 8 12 15 21 15 8
0 15 6 15 13 0 10 22 14 90 15 71 1 100 6 137 24 54 27 60 37 35 63 -29 32
-52 68 -52 82 0 18 2 17 38 -15z"/>
<path d="M5102 2123 c-10 -47 -10 -48 21 -73 35 -28 63 -37 124 -39 40 -1 44
1 63 39 11 22 17 40 12 40 -5 0 -14 12 -20 26 -7 14 -17 22 -23 19 -14 -9 -61
4 -54 15 10 16 -10 19 -55 9 -30 -7 -45 -7 -50 1 -4 6 -11 -11 -18 -37z"/>
<path d="M578 2023 c-10 -2 -18 -10 -18 -18 0 -15 86 -66 143 -84 66 -22 121
6 108 55 -6 25 -11 27 -70 29 -34 1 -68 8 -74 14 -11 11 -55 13 -89 4z"/>
<path d="M2 1860 c-2 -113 1 -151 9 -143 13 13 69 -3 69 -19 0 -7 15 -8 38 -5
33 6 73 1 175 -20 15 -3 27 -9 27 -14 0 -18 70 -22 95 -5 41 27 94 21 131 -15
28 -27 41 -32 101 -37 37 -2 84 -13 103 -23 19 -11 38 -19 42 -19 16 0 7 34
-26 104 -27 56 -45 79 -82 106 -70 50 -130 81 -147 74 -8 -3 -27 5 -43 18
-100 80 -154 102 -211 86 -21 -6 -48 -19 -62 -29 -13 -11 -30 -19 -38 -19 -18
0 -35 -17 -50 -52 -11 -25 -48 -46 -60 -34 -4 3 -6 23 -5 43 0 30 -2 34 -8 18
-8 -20 -9 -20 -9 0 -1 18 -3 17 -18 -5 -18 -25 -18 -24 -24 60 -4 71 -6 59 -7
-70z"/>
<path d="M5774 962 c-17 -11 -36 -51 -29 -63 4 -5 2 -16 -5 -24 -8 -10 -8 -15
0 -20 6 -4 10 -17 9 -28 -4 -31 17 -64 51 -82 39 -20 49 -19 59 7 10 29 3 58
-16 58 -8 0 -13 6 -10 13 2 6 11 11 19 9 21 -3 30 46 15 77 -7 14 -25 32 -42
42 -35 21 -37 21 -51 11z"/>
<path d="M4480 930 c0 -5 -16 -10 -35 -10 -35 0 -63 -29 -37 -38 7 -2 20 -11
29 -20 22 -22 214 -27 259 -7 40 19 59 41 44 50 -47 29 -260 49 -260 25z"/>
<path d="M3948 814 c-38 -7 -52 -27 -36 -53 11 -18 23 -21 90 -21 56 0 78 4
78 13 0 21 37 37 72 31 32 -6 32 -6 12 10 -23 16 -162 29 -216 20z"/>
<path d="M4325 760 c-3 -5 -35 -10 -70 -10 -70 0 -95 -6 -95 -24 0 -6 16 -42
35 -79 42 -81 45 -107 12 -107 -12 0 -30 -9 -39 -19 -9 -10 -23 -23 -31 -27
-17 -10 -26 -62 -14 -81 4 -6 32 -17 62 -24 30 -7 55 -16 55 -21 0 -4 10 -8
23 -8 12 -1 36 -7 52 -14 21 -9 42 -10 70 -4 35 8 76 13 153 17 12 0 22 7 22
16 0 8 5 15 10 15 6 0 10 9 10 20 0 11 -4 20 -10 20 -5 0 -21 12 -35 28 l-25
27 39 17 c65 28 94 115 46 142 -10 6 -41 28 -68 49 -27 20 -59 37 -70 37 -12
0 -28 9 -35 20 -9 14 -23 20 -51 20 -22 0 -43 -4 -46 -10z"/>
<path d="M4880 446 c0 -9 5 -16 10 -16 20 0 10 -29 -12 -35 -13 -4 -35 -20
-50 -36 -24 -26 -25 -29 -7 -34 19 -6 59 10 59 24 0 5 17 9 37 9 24 0 43 7 53
19 8 10 32 27 52 38 49 25 33 35 -68 42 -64 5 -74 4 -74 -11z"/>
</g>
</svg>
